<?xml version="1.0" ?><svg xmlns="http://www.w3.org/2000/svg" width="100" height="100" viewBox="0 0 100 100" fill="none"><path fill-rule="evenodd" clip-rule="evenodd" d="M26.648 58.3144C26.1588 56.3413 26 53.5905 26 49.5C26 45.4095 26.1588 42.6587 26.648 40.6856C27.0911 38.8988 27.7295 38.0463 28.6279 37.4339C29.7249 36.6861 31.6529 36.0008 35.2732 35.5667C38.8433 35.1385 43.5928 35 50 35C56.4072 35 61.1567 35.1385 64.7268 35.5667C68.3471 36.0008 70.2751 36.6861 71.372 37.4339C72.2705 38.0463 72.9089 38.8988 73.3519 40.6856C73.8412 42.6587 74 45.4095 74 49.5C74 53.5905 73.8412 56.3413 73.3519 58.3144C72.9089 60.1012 72.2705 60.9537 71.372 61.5661C70.2751 62.3139 68.3471 62.9992 64.7268 63.4333C61.1567 63.8615 56.4072 64 50 64C43.5928 64 38.8433 63.8615 35.2732 63.4333C31.6529 62.9992 29.7249 62.3139 28.6279 61.5661C27.7295 60.9537 27.0911 60.1012 26.648 58.3144ZM50 68C24.3333 68 22 65.8235 22 49.5C22 33.1765 24.3333 31 50 31C75.6667 31 78 33.1765 78 49.5C78 65.8235 75.6667 68 50 68ZM59.6667 44.875C59.6667 43.7704 60.5622 42.875 61.6667 42.875H66.3334C67.438 42.875 68.3334 43.7704 68.3334 44.875C68.3334 45.9796 67.438 46.875 66.3334 46.875H61.6667C60.5622 46.875 59.6667 45.9796 59.6667 44.875ZM38.6667 54.125C38.6667 53.0204 39.5622 52.125 40.6667 52.125H59.3334C60.438 52.125 61.3334 53.0204 61.3334 54.125C61.3334 55.2296 60.438 56.125 59.3334 56.125H40.6667C39.5622 56.125 38.6667 55.2296 38.6667 54.125ZM35.9999 44.875C35.9999 46.1522 34.9552 47.1875 33.6666 47.1875C32.3779 47.1875 31.3333 46.1522 31.3333 44.875C31.3333 43.5978 32.3779 42.5625 33.6666 42.5625C34.9552 42.5625 35.9999 43.5978 35.9999 44.875ZM35.9999 54.125C35.9999 55.4022 34.9552 56.4375 33.6666 56.4375C32.3779 56.4375 31.3333 55.4022 31.3333 54.125C31.3333 52.8478 32.3779 51.8125 33.6666 51.8125C34.9552 51.8125 35.9999 52.8478 35.9999 54.125ZM40.6666 47.1875C41.9552 47.1875 42.9999 46.1522 42.9999 44.875C42.9999 43.5978 41.9552 42.5625 40.6666 42.5625C39.3779 42.5625 38.3333 43.5978 38.3333 44.875C38.3333 46.1522 39.3779 47.1875 40.6666 47.1875ZM49.9999 44.875C49.9999 46.1522 48.9552 47.1875 47.6666 47.1875C46.3779 47.1875 45.3333 46.1522 45.3333 44.875C45.3333 43.5978 46.3779 42.5625 47.6666 42.5625C48.9552 42.5625 49.9999 43.5978 49.9999 44.875ZM54.6666 47.1875C55.9552 47.1875 56.9999 46.1522 56.9999 44.875C56.9999 43.5978 55.9552 42.5625 54.6666 42.5625C53.3779 42.5625 52.3333 43.5978 52.3333 44.875C52.3333 46.1522 53.3779 47.1875 54.6666 47.1875ZM68.6666 54.125C68.6666 55.4022 67.6219 56.4375 66.3333 56.4375C65.0446 56.4375 63.9999 55.4022 63.9999 54.125C63.9999 52.8478 65.0446 51.8125 66.3333 51.8125C67.6219 51.8125 68.6666 52.8478 68.6666 54.125Z" fill="black"/></svg>